<svg id="Layer_5" data-name="Layer 5" xmlns="http://www.w3.org/2000/svg" viewBox="0 0 936.65 902.56"><defs><style>.cls-1,.cls-2{stroke:#000;stroke-miterlimit:10;}.cls-2{fill:none;}</style></defs><title>My Logo new</title><polygon class="cls-1" points="756.82 902.06 635.82 663.06 467.82 826.06 467.82 902.06 756.82 902.06"/><polygon class="cls-1" points="753.82 547.06 935.82 897.06 797.82 897.06 662.82 635.06 753.82 547.06"/><polygon class="cls-1" points="919.82 350.06 792.82 350.06 467.82 669.06 468.82 786.06 919.82 350.06"/><polygon class="cls-1" points="468.82 350.06 574.82 531.06 467.82 644.06 468.82 350.06"/><polygon class="cls-1" points="469.32 2.06 682.82 421.06 601.82 500.06 467.82 244.06 469.32 2.06"/><path class="cls-1" d="M999.5,606.5" transform="translate(-530.68 -522.44)"/><path class="cls-1" d="M999.5,532.5" transform="translate(-530.68 -522.44)"/><line class="cls-2" x1="468.82" y1="66.06" x2="467.82" y2="1.06"/><polygon class="cls-1" points="179.82 902.06 300.82 663.06 468.82 826.06 468.82 902.06 179.82 902.06"/><polygon class="cls-1" points="182.82 547.06 0.82 897.06 138.82 897.06 273.82 635.06 182.82 547.06"/><polygon class="cls-1" points="16.82 350.06 143.82 350.06 468.82 669.06 467.82 786.06 16.82 350.06"/><polygon class="cls-1" points="467.82 350.06 361.82 531.06 468.82 644.06 467.82 350.06"/><polygon class="cls-1" points="467.32 2.06 253.82 421.06 334.82 500.06 468.82 244.06 467.32 2.06"/><path class="cls-1" d="M998.5,606.5" transform="translate(-530.68 -522.44)"/><path class="cls-1" d="M998.5,532.5" transform="translate(-530.68 -522.44)"/><line class="cls-2" x1="467.82" y1="66.06" x2="468.82" y2="1.06"/></svg>